<?xml version="1.0" encoding="utf-8"?>
<!-- Generator: Adobe Illustrator 22.1.0, SVG Export Plug-In . SVG Version: 6.00 Build 0)  -->
<svg version="1.1" id="Layer_1" xmlns="http://www.w3.org/2000/svg" xmlns:xlink="http://www.w3.org/1999/xlink" x="0px" y="0px"
	 viewBox="0 0 999.3 812" style="enable-background:new 0 0 999.3 812;" xml:space="preserve">
<style type="text/css">
	.st0{clip-path:url(#SVGID_2_);}
	.st1{clip-path:url(#SVGID_4_);}
	.st2{clip-path:url(#SVGID_6_);}
	.st3{clip-path:url(#SVGID_8_);}
	.st4{clip-path:url(#SVGID_10_);}
	.st5{clip-path:url(#SVGID_12_);}
	.st6{clip-path:url(#SVGID_14_);}
	.st7{clip-path:url(#SVGID_16_);}
</style>
<title>algothon-logo</title>
<g>
	<g>
		<g>
			<defs>
				<path id="SVGID_1_" d="M0.1,811.2c-0.2-0.6-0.1-1.3,0.3-1.8c7.2-12.1,14.4-24.1,21.6-36.1c7.8-13.1,15.7-26.2,23.6-39.3
					c9.7-16.2,19.4-32.4,29.1-48.6c8.5-14.3,17.1-28.6,25.6-42.8c5.6-9.4,11.3-18.7,16.9-28.1c8-13.4,16-26.9,24-40.3
					c8.5-14.3,17.1-28.6,25.6-42.8l22.2-37.1c8.5-14.3,17.1-28.6,25.6-42.8c7.4-12.3,14.8-24.7,22.2-37.1
					c8.7-14.5,17.4-29,26.1-43.4c8.5-14.3,17.1-28.5,25.6-42.8c9.6-16.1,19.2-32.2,28.9-48.3l25.5-42.5
					c9.8-16.3,19.5-32.6,29.3-48.9c10.1-16.8,20.1-33.7,30.2-50.5c9.3-15.6,18.6-31.1,27.9-46.7c0.2-0.3,0.4-0.6,0.6-0.9
					c2.1-3.2,2.1-3.2,3.9,0.1c5.8,10.9,11.6,21.7,17.4,32.6c4.3,8.1,8.7,16.2,13.1,24.3c0.7,1.2,0.7,2.7-0.2,3.8
					c-8.2,13.6-16.4,27.3-24.5,40.9c-7.9,13.1-15.7,26.2-23.6,39.3c-9.7,16.2-19.4,32.4-29.1,48.6l-25.6,42.8
					c-9.6,16.1-19.3,32.2-28.9,48.3c-8.5,14.3-17.1,28.5-25.6,42.8c-9.6,16.1-19.3,32.2-28.9,48.3c-8.5,14.2-17,28.3-25.5,42.5
					c-6.5,10.7-12.9,21.5-19.4,32.2c-8,13.4-16,26.9-24,40.3c-8.5,14.3-17.1,28.6-25.6,42.8c-7.4,12.4-14.8,24.7-22.1,37.1
					c-8.5,14.3-17.1,28.6-25.6,42.8c-7.4,12.4-14.8,24.7-22.2,37.1c-8.7,14.5-17.4,29-26.1,43.4c-5.6,9.3-11.1,18.5-16.6,27.8
					c-1.4,2.5-3,3.7-6.1,3.7c-20.7-0.2-41.3-0.1-62-0.1C2.5,811.6,1.2,812,0.1,811.2z"/>
			</defs>
			<clipPath id="SVGID_2_">
				<use xlink:href="#SVGID_1_"  style="overflow:visible;"/>
			</clipPath>
			<g id="_x30_FEGdB_5_" class="st0">
				
					<image style="overflow:visible;enable-background:new    ;" width="640" height="395" id="_x30_FEGdB_6_" xlink:href="Links/rainbow.png"  transform="matrix(2.3537 0 0 2.3537 -222.333 -34.2298)">
				</image>
			</g>
		</g>
	</g>
</g>
<g>
	<g>
		<g>
			<defs>
				<path id="SVGID_3_" d="M430.2,0.5c1.2-0.6,2.5-0.3,3.7-0.3c21.4,0,42.8,0.1,64.2-0.1c2.9,0,4.4,1,5.7,3.5
					c35.6,66.3,71.2,132.7,106.9,199l166.6,310.1c18.8,35,37.6,70,56.4,104.9c0.7,1.3,1.3,2.6,2,3.9c-1,0.9-2.1,0.6-3,0.6
					c-21.9,0-43.8,0-65.7,0.1c-2.1,0.2-4.1-1-4.9-2.9c-29.9-55.8-59.9-111.6-89.9-167.4c-49-91.2-98-182.4-147-273.6
					c-27.9-52-55.9-103.9-83.8-155.9c-3.3-6.1-6.6-12.3-9.9-18.4C430.9,2.8,429.9,1.9,430.2,0.5z"/>
			</defs>
			<clipPath id="SVGID_4_">
				<use xlink:href="#SVGID_3_"  style="overflow:visible;"/>
			</clipPath>
			<g id="_x30_FEGdB_7_" class="st1">
				
					<image style="overflow:visible;enable-background:new    ;" width="640" height="395" id="_x30_FEGdB_8_" xlink:href="Links/rainbow.png"  transform="matrix(2.3537 0 0 2.3537 -226.2162 -30.5082)">
				</image>
			</g>
		</g>
	</g>
</g>
<g>
	<g>
		<g>
			<defs>
				<path id="SVGID_5_" d="M102.5,811c126.4-211.2,252.7-422.2,378.9-633c1,1.1,1.8,2.3,2.4,3.7c4.7,8.9,9.4,17.8,14.2,26.7
					c5.5,10.4,11.1,20.9,16.8,31.2c1.5,2.7,1.2,4.6-0.4,7.2c-9.5,15.5-18.7,31.1-28,46.6c-10.4,17.3-20.8,34.7-31.2,52.1
					c-10.1,16.8-20.1,33.7-30.2,50.5c-11.9,19.8-23.7,39.6-35.6,59.4c-10.3,17.3-20.6,34.6-30.9,51.8
					c-10.1,16.8-20.2,33.6-30.3,50.4c-9.6,16-19,32-28.6,48c-9.3,15.6-18.7,31.1-28,46.6c-8.6,14.3-17.1,28.5-25.6,42.8
					s-17.2,28.7-25.9,43.1c-8.6,14.3-17.1,28.5-25.6,42.8c-4.8,8-9.6,16-14.4,24c-0.4,0.5-0.7,1-1,1.6c-1.2,4.2-4,5-8.1,5
					c-21.2-0.2-42.3-0.1-63.5-0.1C105.6,811.8,104,811.6,102.5,811z"/>
			</defs>
			<clipPath id="SVGID_6_">
				<use xlink:href="#SVGID_5_"  style="overflow:visible;"/>
			</clipPath>
			<g id="_x30_FEGdB_3_" class="st2">
				
					<image style="overflow:visible;enable-background:new    ;" width="640" height="395" id="_x30_FEGdB_4_" xlink:href="Links/rainbow.png"  transform="matrix(2.3537 0 0 2.3537 -226.2162 -30.5082)">
				</image>
			</g>
		</g>
	</g>
</g>
<g>
	<g>
		<g>
			<defs>
				<path id="SVGID_7_" d="M275.5,720.2c-0.1-1.6,0.7-2.4,1.3-3.3c10.9-18.1,21.8-36.2,32.6-54.4c0.9-1.9,2.9-3,5-2.8
					c146.8,0.1,293.6,0.1,440.4,0.1c72.1,0,144.2,0,216.2,0.1c8.2,0,16.4-0.1,24.7-0.1c1.2,0,2.5-0.3,3.6,0.3c0,1.2-0.8,2-1.4,3
					c-10.8,18-21.6,36.1-32.3,54.2c-1.4,2.4-3,3.1-5.6,3.1c-227-0.1-453.9-0.1-680.9-0.1L275.5,720.2z"/>
			</defs>
			<clipPath id="SVGID_8_">
				<use xlink:href="#SVGID_7_"  style="overflow:visible;"/>
			</clipPath>
			<g id="_x30_FEGdB_11_" class="st3">
				
					<image style="overflow:visible;enable-background:new    ;" width="640" height="395" id="_x30_FEGdB_12_" xlink:href="Links/rainbow.png"  transform="matrix(2.3537 0 0 2.3537 -222.333 -34.2298)">
				</image>
			</g>
		</g>
	</g>
</g>
<g>
	<g>
		<g>
			<defs>
				<path id="SVGID_9_" d="M220.1,811.6c0.7-1.3,1.2-2.2,1.6-3c11.5-19.2,23.1-38.4,34.5-57.6c1-2,3.1-3.2,5.3-3
					c207.5,0.1,415,0.1,622.5,0h2.9c0.7,1,0.1,1.5-0.3,2.2c-11.9,19.9-23.7,39.7-35.6,59.6c-0.9,1.6-2,2.4-3.9,2.2
					c-0.9-0.1-1.7-0.1-2.6,0c-193.1,0-386.1,0-579.2-0.1c-14.3,0-28.6-0.1-42.9-0.2C221.8,811.7,221.2,811.7,220.1,811.6z"/>
			</defs>
			<clipPath id="SVGID_10_">
				<use xlink:href="#SVGID_9_"  style="overflow:visible;"/>
			</clipPath>
			<g id="_x30_FEGdB_9_" class="st4">
				
					<image style="overflow:visible;enable-background:new    ;" width="640" height="395" id="_x30_FEGdB_10_" xlink:href="Links/rainbow.png"  transform="matrix(2.3537 0 0 2.3537 -226.2162 -30.5082)">
				</image>
			</g>
		</g>
	</g>
</g>
<g>
	<g>
		<g>
			<defs>
				<path id="SVGID_11_" d="M936,621.5c-1.3,0.5-2.6,0.7-4,0.5c-20.2,0-40.3,0-60.5,0.1c-2.7,0-4.1-0.9-5.4-3.3
					c-44.6-83.1-89.2-166.2-133.9-249.2c-42.9-79.8-85.8-159.6-128.7-239.4c-16.1-30-32.3-60-48.4-90.1c-0.6-1.1-1.1-2.2-1.8-3.5
					c0.9-0.5,1.9-0.6,2.9-0.5c20.8,0,41.6,0,62.4-0.1c2-0.2,3.8,0.9,4.6,2.8c23.8,44.4,47.6,88.8,71.5,133.2
					c51.3,95.5,102.6,190.9,154,286.4c28.2,52.5,56.4,105,84.7,157.5C934.5,617.7,935.3,619.5,936,621.5z"/>
			</defs>
			<clipPath id="SVGID_12_">
				<use xlink:href="#SVGID_11_"  style="overflow:visible;"/>
			</clipPath>
			<g id="_x30_FEGdB_1_" class="st5">
				
					<image style="overflow:visible;enable-background:new    ;" width="640" height="395" id="_x30_FEGdB_2_" xlink:href="Links/rainbow.png"  transform="matrix(2.3537 0 0 2.3537 -226.2162 -30.5082)">
				</image>
			</g>
		</g>
	</g>
</g>
<g>
	<g>
		<g>
			<defs>
				<path id="SVGID_13_" d="M619.7,557.2c-12.6,18.2-43.5,20.8-60.4,8.6c-7.7-5.6-13.4-13.6-16.2-22.7c-4.3-13.2-4.6-27.4-0.7-40.8
					c4.6-15.6,14.9-25.8,30.4-30.7c12.7-4,26.2-4.3,39-0.9c14.2,3.7,23.7,13,29.8,26.1c4.8,10.3,6.9,21.2,8,32.4
					c1.4,13.9,1.1,27.9-0.7,41.7c-1.8,13.2-5.2,25.9-12.8,37c-8.8,12.7-20.9,19.8-36.3,21.6c-7.8,0.9-15.7,0.5-23.4-1
					c-15.5-3.1-25.6-12.5-31.1-27.1c-0.8-2.1-1.4-4.3-2.1-6.4c-0.5-1.4-0.1-2,1.4-2.2c5.5-0.7,11.1-1.5,16.6-2.3
					c3-0.4,5.9-0.8,8.9-1.3c1.3-0.2,2.2,0.1,2.5,1.4c0.1,0.5,0.3,0.9,0.5,1.4c5.8,16.9,26.4,16,34.5,7.1c2.9-3.2,5.3-6.9,6.9-11
					c2.5-6.5,4-13.4,4.5-20.3C619.3,564.3,619.4,560.7,619.7,557.2z M617.3,524.8c-0.3-8.5-1.4-15.8-5.8-22.3
					c-4.7-7-11.3-10.2-19.8-9.5c-8.7,0.7-14.6,5.5-17.6,13.5c-3.7,9.6-3.7,20.3,0.2,29.9c6.9,17.6,27,15.9,35.5,7.5
					C615.5,538.3,617.2,531.5,617.3,524.8L617.3,524.8z"/>
			</defs>
			<clipPath id="SVGID_14_">
				<use xlink:href="#SVGID_13_"  style="overflow:visible;"/>
			</clipPath>
			<g id="_x30_FEGdB_15_" class="st6">
				
					<image style="overflow:visible;enable-background:new    ;" width="640" height="395" id="_x30_FEGdB_16_" xlink:href="Links/rainbow.png"  transform="matrix(2.3537 0 0 2.3537 -226.2162 -34.2298)">
				</image>
			</g>
		</g>
	</g>
</g>
<g>
	<g>
		<g>
			<defs>
				<path id="SVGID_15_" d="M442.2,497.4l-37.6,23.5V514c0-5,0.1-10,0-14.9c-0.1-2.2,0.8-3.3,2.5-4.5c11.6-7.4,23.2-15,34.8-22.5
					c1.1-0.8,2.4-1.3,3.8-1.3c8.8,0,17.7,0,26.5,0c0.4,0,0.7,0.1,1.1,0.2c0.6,1.5,0.3,3,0.3,4.5c0,41.4,0,82.9,0,124.3
					c0,5.1-0.5,4.7,4.5,4.7c9.6,0,19.2,0,28.8,0c2.7,0,2.8,0.1,2.8,2.6c0,6.1,0,12.2,0,18.3c0,1.8-0.6,2.5-2.4,2.3
					c-0.6,0-1.2,0-1.9,0h-97.8c-0.7,0-1.5,0-2.2,0c-1.4,0.1-2-0.5-2-1.9c0-6.5,0.1-12.9,0-19.4c0-2.2,1.5-1.9,2.8-1.9
					c9.3,0,18.7,0,28,0c2,0,4-0.1,6,0c1.7,0.1,2.3-0.6,2.1-2.2c0-0.5,0-1,0-1.5L442.2,497.4L442.2,497.4z"/>
			</defs>
			<clipPath id="SVGID_16_">
				<use xlink:href="#SVGID_15_"  style="overflow:visible;"/>
			</clipPath>
			<g id="_x30_FEGdB_13_" class="st7">
				
					<image style="overflow:visible;enable-background:new    ;" width="640" height="395" id="_x30_FEGdB_14_" xlink:href="Links/rainbow.png"  transform="matrix(2.3537 0 0 2.3537 -222.333 -34.2298)">
				</image>
			</g>
		</g>
	</g>
</g>
</svg>
