<?xml version="1.0" standalone="no"?>
<!DOCTYPE svg PUBLIC "-//W3C//DTD SVG 20010904//EN"
 "http://www.w3.org/TR/2001/REC-SVG-20010904/DTD/svg10.dtd">
<svg version="1.0" xmlns="http://www.w3.org/2000/svg"
 width="4000.000000pt" height="4000.000000pt" viewBox="0 0 4000.000000 4000.000000"
 preserveAspectRatio="xMidYMid meet">
<metadata>
Created by potrace 1.15, written by Peter Selinger 2001-2017
</metadata>
<g transform="translate(0.000000,4000.000000) scale(0.100000,-0.100000)"
fill="#000000" stroke="none">
<path d="M18143 30845 c6 -14 497 -929 3637 -6770 846 -1573 1959 -3645 2475
-4605 1389 -2585 2034 -3784 2452 -4562 l375 -698 964 0 c530 0 964 2 964 4 0
5 -169 321 -1965 3661 -730 1359 -1909 3552 -2620 4875 -711 1323 -1872 3483
-2580 4800 -708 1317 -1398 2601 -1533 2853 l-245 457 -965 0 c-842 0 -963 -2
-959 -15z"/>
<path d="M21450 29886 c0 -3 386 -723 2095 -3901 452 -841 1566 -2914 2475
-4605 909 -1691 1874 -3487 2145 -3990 270 -503 766 -1425 1100 -2047 l608
-1133 914 0 c502 0 913 2 913 4 0 3 -1369 2552 -3210 5976 -318 591 -1415
2632 -2437 4535 -1023 1903 -2066 3844 -2318 4313 l-458 852 -914 0 c-502 0
-913 -2 -913 -4z"/>
<path d="M22290 18305 c-506 -63 -864 -296 -1055 -689 -95 -194 -133 -366
-142 -632 -17 -494 110 -877 377 -1145 208 -209 442 -304 772 -316 157 -6 271
8 413 50 253 74 455 219 548 392 16 29 16 28 17 -73 0 -56 -7 -168 -15 -247
-42 -400 -146 -670 -319 -833 -118 -109 -228 -153 -391 -153 -124 0 -190 12
-269 51 -120 60 -224 191 -267 338 -7 23 -15 42 -18 42 -4 0 -119 -16 -256
-35 -138 -19 -308 -42 -379 -52 -86 -11 -130 -21 -133 -30 -9 -22 64 -229 117
-335 179 -358 440 -543 864 -613 139 -23 354 -29 496 -15 728 72 1182 570
1334 1461 43 250 55 447 51 814 -6 582 -74 953 -239 1300 -127 268 -344 492
-581 600 -251 115 -598 160 -925 120z m390 -656 c138 -38 232 -106 320 -231
96 -137 146 -303 157 -523 15 -319 -74 -527 -287 -664 -95 -61 -167 -83 -300
-88 -192 -9 -307 32 -425 151 -162 163 -240 447 -206 745 30 253 124 436 278
543 120 82 310 110 463 67z"/>
<path d="M17997 17919 l-527 -342 0 -323 c0 -178 2 -324 5 -324 3 0 228 140
501 310 273 171 498 310 500 310 2 0 4 -646 4 -1435 l0 -1435 -520 0 -520 0 0
-310 0 -310 1415 0 1415 0 0 310 0 310 -480 0 -480 0 0 1790 0 1790 -393 0
-394 0 -526 -341z"/>
<path d="M14505 12433 c-253 -421 -470 -783 -483 -805 l-23 -38 9219 0 9220 0
468 783 c257 430 474 792 482 805 l14 22 -9218 0 -9219 0 -460 -767z"/>
<path d="M13031 9980 l-510 -850 8431 2 8432 3 159 265 c88 146 316 527 507
848 l349 582 -8429 0 -8429 0 -510 -850z"/>
</g>
</svg>
